<!-- USER PLUS -->
<svg  viewBox="0 0 64 64" fill="none">
  <path
    d="M27.865 31.758C33.5972 31.758 38.244 27.1112 38.244 21.379C38.244 15.6468 33.5972 11 27.865 11C22.1328 11 17.486 15.6468 17.486 21.379C17.486 27.1112 22.1328 31.758 27.865 31.758Z"
    stroke="#00F"
    strokeWidth="4"
    strokeLinecap="round"
    strokeLinejoin="round"
  />
  <path
    d="M40 36.346C37.0313 33.3973 33.0142 31.7466 28.83 31.756H26.9C22.6831 31.756 18.6388 33.4312 15.657 36.413C12.6752 39.3948 11 43.4391 11 47.656V52.516H44.73V51.756"
    stroke="#00F"
    strokeWidth="4"
    strokeLinecap="round"
    strokeLinejoin="round"
  />
  <path
    d="M48.621 38.146V46.123"
    stroke="#00F"
    strokeWidth="4"
    strokeLinecap="round"
    strokeLinejoin="round"
  />
  <path
    d="M52.609 42.134H44.632"
    stroke="#00F"
    strokeWidth="4"
    strokeLinecap="round"
    strokeLinejoin="round"
  />
</svg>

<!-- EDIT -->
<svg width="50px" height="50px" viewBox="0 0 24 24" fill="none">
  <path
    fill="#00F"
    d="M15.586 3a2 2 0 0 1 2.828 0L21 5.586a2 2 0 0 1 0 2.828L19.414 10 14 4.586 15.586 3zm-3 3-9 9A2 2 0 0 0 3 16.414V19a2 2 0 0 0 2 2h2.586A2 2 0 0 0 9 20.414l9-9L12.586 6z"
  />
</svg>

<!-- TRASH CAN -->
<svg height="50px" width="50px" viewBox="0 0 512 512">
  <path
    fill="#CCC"
    d="M88.594,464.731C90.958,491.486,113.368,512,140.234,512h231.523c26.858,0,49.276-20.514,51.641-47.269
l25.642-335.928H62.952L88.594,464.731z M420.847,154.93l-23.474,307.496c-1.182,13.37-12.195,23.448-25.616,23.448H140.234
c-13.42,0-24.434-10.078-25.591-23.132L91.145,154.93H420.847z"
  />
  <path
    fill="#CCC"
    d="M182.954,435.339c5.877-0.349,10.35-5.4,9.992-11.269l-10.137-202.234c-0.358-5.876-5.401-10.349-11.278-9.992
c-5.877,0.357-10.35,5.409-9.993,11.277l10.137,202.234C172.033,431.231,177.085,435.696,182.954,435.339z"
  />
  <path
    fill="#CCC"
    d="M256,435.364c5.885,0,10.656-4.763,10.656-10.648V222.474c0-5.885-4.771-10.648-10.656-10.648
c-5.885,0-10.657,4.763-10.657,10.648v202.242C245.344,430.601,250.115,435.364,256,435.364z"
  />
  <path
    fill="#CCC"
    d="M329.046,435.339c5.878,0.357,10.921-4.108,11.278-9.984l10.129-202.234c0.348-5.868-4.116-10.92-9.993-11.277
c-5.877-0.357-10.92,4.116-11.277,9.992L319.054,424.07C318.697,429.938,323.17,434.99,329.046,435.339z"
  />
  <path
    fill="#CCC"
    d="M439.115,64.517c0,0-34.078-5.664-43.34-8.479c-8.301-2.526-80.795-13.566-80.795-13.566l-2.722-19.297
C310.388,9.857,299.484,0,286.642,0h-30.651H225.34c-12.825,0-23.728,9.857-25.616,23.175l-2.721,19.297
c0,0-72.469,11.039-80.778,13.566c-9.261,2.815-43.357,8.479-43.357,8.479C62.544,67.365,55.332,77.172,55.332,88.38v21.926h200.66
h200.676V88.38C456.668,77.172,449.456,67.365,439.115,64.517z M276.318,38.824h-40.636c-3.606,0-6.532-2.925-6.532-6.532
s2.926-6.532,6.532-6.532h40.636c3.606,0,6.532,2.925,6.532,6.532S279.924,38.824,276.318,38.824z"
  />
</svg>